<mxfile host="app.diagrams.net" modified="2023-04-14T04:37:11.734Z" agent="Mozilla/5.0 (Windows NT 10.0; Win64; x64) AppleWebKit/537.36 (KHTML, like Gecko) Chrome/111.0.0.0 Safari/537.36" version="21.1.2" etag="8qyecmVUNrueEoC7IYdD" type="github">
  <diagram name="Page-1" id="rwPJwbORcoHXm7pq_xGs">
    <mxGraphModel>
      <root>
        <mxCell id="0" />
        <mxCell id="1" parent="0" />
      </root>
    </mxGraphModel>
  </diagram>
</mxfile>
